<?xml version="1.0" encoding="utf-8"?>
<!-- Generator: Adobe Illustrator 26.0.1, SVG Export Plug-In . SVG Version: 6.00 Build 0)  -->
<svg version="1.1" xmlns="http://www.w3.org/2000/svg" xmlns:xlink="http://www.w3.org/1999/xlink" x="0px" y="0px"
	 viewBox="0 0 500 500" style="enable-background:new 0 0 500 500;" xml:space="preserve">
<g id="BACKGROUND">
	<path style="fill:#DDECFF;" d="M677.7,390.02c0,0-54.62-38.9-70.34-105.1c-15.72-66.21,8.28-146.48,53.79-187.03
		c45.52-40.55,127.45-13.24,163.86,20.69c36.41,33.93,36.41,33.93,36.41,33.93s34.76,19.03,80.28,17.38
		c45.52-1.66,86.07,60.41,96.83,109.24c10.76,48.83-14.9,113.38-14.9,113.38L677.7,390.02z"/>
	<path style="fill:#DDECFF;" d="M652.88,399.95c0,0-38.07-20.69-48-68.69c-9.93-48,33.1-91.86,37.24-115.86
		c4.14-24-4.97-53.79,33.1-76.97c38.07-23.17,105.93-14.9,131.59-20.69c25.66-5.79,55.45-45.52,106.76-36.41
		c51.31,9.1,100.97,36.41,103.45,96c2.48,59.59-16.55,61.24,2.48,93.52c19.03,32.28,26.48,54.62,17.38,87.72
		c-9.1,33.1-28.14,42.21-28.14,42.21L652.88,399.95z"/>
	<path style="fill:#DDECFF;" d="M732.36,389.19c-2.37-2.48-37.1-72,1.58-135.72c38.68-63.72,135.77-56.28,174.45-31.45
		s57.62,57.1,61.57,91.03c3.95,33.93-22.1,86.9-22.1,86.9L732.36,389.19z"/>
</g>
<g id="OBJECTS">
	<g>
		<g>
			<path style="fill:#60A8FF;" d="M1004.7,272.16h-44.62c-2.76,0-5-2.24-5-5v-22.28c0-2.76,2.24-5,5-5h44.62c2.76,0,5,2.24,5,5
				v22.28C1009.7,269.92,1007.46,272.16,1004.7,272.16z"/>
			<polygon style="fill:#60A8FF;" points="982.39,284.78 989.46,268.02 975.32,268.02 			"/>
		</g>
		<g>
			<g>
				<g>
					<polygon style="fill:#223A7A;" points="982.22,250.48 995,250.48 995,252.35 1001.26,248.74 995,245.13 995,247 982.22,247 
											"/>
				</g>
				<g>
					<polygon style="fill:#FFFFFF;" points="1001.26,257.82 988.49,257.82 988.49,255.96 982.22,259.57 988.49,263.18 
						988.49,261.31 1001.26,261.31 					"/>
				</g>
			</g>
			<g>
				<path style="fill:#223A7A;" d="M974.38,261.11l-0.61,0.22c0,0-1.9-2.16-2.88-4.52c-0.98-2.36-1.02-5.23-1.02-5.23l0.44-0.19
					l-2.7-6.46c-0.48,0.38-0.94,0.86-1.31,1.49c-1.53,2.58-1.38,6.55,0.16,10.42c1.54,3.87,3.18,7.33,6.18,9.5
					c1.77,1.28,3.29,1.51,4.47,1.32L974.38,261.11z"/>
				<path style="fill:#223A7A;" d="M976.32,260.35l-0.84,0.31l2.77,6.62c0.31-0.1,0.59-0.23,0.84-0.36
					c0.71-0.39,1.03-1.25,0.73-2.01l-1.44-3.64C978.05,260.46,977.14,260.05,976.32,260.35z"/>
				<path style="fill:#223A7A;" d="M969.73,243.79c-0.34,0.12-0.71,0.29-1.08,0.51l2.76,6.6l0.93-0.39
					c0.81-0.34,1.19-1.25,0.88-2.07l-1.45-3.72C971.45,243.92,970.55,243.5,969.73,243.79z"/>
			</g>
		</g>
	</g>
	<g>
		<path style="fill:#1C83FF;" d="M719.46,378.02v-74.48c0,0-0.83-20.07,9.72-25.86c10.55-5.79,55.03-2.69,55.03-2.69v103.03H719.46z
			"/>
	</g>
	<g>
		<g>
			<path style="fill:#FF9D8C;" d="M798.12,205.26c0,0-2.69,22.55-3.72,24.41c-1.03,1.86-1.03,1.86-1.03,1.86l-5.17,3.52
				c0,0,9.93,14.07,22.14,16.34c12.21,2.28,11.17-4.97,11.17-4.97l-1.86-3.93l2.48-21.52C822.12,220.99,799.98,210.85,798.12,205.26
				z"/>
		</g>
		<path style="fill:#FFFFFF;" d="M781.77,236.92l8.07-3.52c0,0,5.17,8.48,17.17,13.45s12.21,2.07,12.83,0
			c0.62-2.07-0.21-4.34-0.21-4.34l0.89-7.24l4.8,1.6l16.66,134.75l-42.83,2.07L781.77,236.92z"/>
		<g>
			<path style="fill:#223A7A;" d="M821.29,235.4c0,0,2.9,6.69,5.59,22.41c2.69,15.72,5.17,42.21,5.79,60.41
				c0.62,18.21,1.03,59.79,1.03,59.79s53.38,0,54,0c0.62,0,4.34-20.48,4.34-20.48s-23.59-20.21-24.83-23.52
				c-0.83-2.21-0.41-43.1-3.93-61.93c-3.52-18.83-8.07-22.62-17.59-27.31C835.87,239.93,821.29,235.4,821.29,235.4z"/>
		</g>
		<g>
			<path style="fill:#8593B6;" d="M849.43,354.32c-0.28,0-0.5-0.22-0.5-0.5c0-1.48-0.26-22.5-0.52-42.82
				c-0.25-20.33-0.52-41.35-0.52-42.83c0-0.28,0.22-0.5,0.5-0.5c0.28,0,0.5,0.22,0.5,0.5c0,1.48,0.26,22.5,0.52,42.82
				c0.25,20.33,0.52,41.35,0.52,42.83C849.93,354.09,849.7,354.32,849.43,354.32z"/>
		</g>
		<g>
			<path style="fill:#223A7A;" d="M741.84,349.26l-0.41,28.76h62.9c0,0,2.69-24.41,1.66-26.69
				C804.94,349.06,741.84,349.26,741.84,349.26z"/>
		</g>
		<g>
			<path style="fill:#8E9BBB;" d="M811.84,229.06c2.56,2.07,6.07,3.72,8.8,4.73l1.48-12.8c0,0-16.63-7.62-22.27-13.28
				C801.03,214.14,803.93,222.67,811.84,229.06z"/>
		</g>
		<g>
			<path style="fill:#FF9D8C;" d="M841.57,163.26c0,0,4.34,7.45,5.17,16.55c0.83,9.1,0,32.48-7.45,42.41
				c-7.45,9.93-22.97,7.03-30,1.03c-6.46-5.51-12.83-11.59-14.48-23.59c-1.66-12,3.52-34.76,18.21-39.52
				C827.7,155.4,841.57,163.26,841.57,163.26z"/>
		</g>
		<g>
			<g>
				<path style="fill:#FF9D8C;" d="M860.23,365.02c0,0-0.73,0-1.84-0.03c-0.26-0.01-0.55,0-0.85-0.01c-1.07-0.03-2.37-0.06-3.68-0.1
					c-0.29-0.01-0.59-0.02-0.88-0.03c-1.3-0.03-2.41,0.13-3.45,0.07h-0.03c-0.22-0.01-0.54,0.02-0.8,0.03
					c-0.13,0.01-0.25,0.02-0.33,0.01c-0.6-0.11-0.72-0.25-1.37-0.54c-0.84-0.38-12.21-2.92-21.46-2.86
					c-9.24,0.04-17.53,0.67-18.88-0.46c-1.36-1.15-2.18-12.76,5.71-13.52l9.7,3.68c0,0,22.15-2.63,30.27,3.36
					C860.48,360.61,860.23,365.02,860.23,365.02z"/>
			</g>
			<g>
				<g>
					<path style="fill:#223A7A;" d="M849.5,364.92c-0.22-0.01-0.54,0.02-0.8,0.03c-0.2-0.32-0.62-0.9-0.85-1.14
						c-2.5-2.55-8.54-4.2-10.73-4.73c-0.2-0.05-0.33-0.25-0.28-0.45c0.04-0.2,0.25-0.32,0.46-0.28c3.19,0.77,9.96,2.74,11.88,5.97
						C849.24,364.41,849.4,364.72,849.5,364.92z"/>
				</g>
			</g>
			<g>
				<g>
					<path style="fill:#223A7A;" d="M853.86,364.87c-0.29-0.01-0.59-0.01-0.88-0.03c-2.73-4.98-7.2-6.41-12.71-8.18l-0.33-0.11
						c-0.19-0.06-0.3-0.28-0.24-0.48c0.06-0.19,0.27-0.3,0.48-0.24l0.32,0.11C846.33,357.82,851.03,359.32,853.86,364.87z"/>
				</g>
			</g>
			<g>
				<g>
					<path style="fill:#223A7A;" d="M858.39,364.98c-0.26-0.01-0.55,0-0.85-0.01c-1.66-3.48-7.14-9.31-14.38-10.66
						c-0.21-0.04-0.34-0.23-0.31-0.44c0.04-0.2,0.24-0.33,0.44-0.3C850.75,354.98,856.78,361.07,858.39,364.98z"/>
				</g>
			</g>
		</g>
		<g>
			<path style="fill:#223A7A;" d="M799.77,189.44c0,0,4.55-2.17,7.76-8.28c3.21-6.1,2.79-11.59,2.79-11.59s5.79-0.93,14.48,1.66
				c8.69,2.59,19.03,6.1,27.72,1.14c8.69-4.97,8.69-12.93,4.45-16.24c-4.75-3.71-14.17-1.45-14.17-1.45s3.62-3.52,1.66-5.59
				c-1.97-2.07-9.1,0.62-9.1,0.62s-8.69-6.93-25.14-6.1c-16.45,0.83-24.31,12.31-25.24,25.14c-0.93,12.83,3.72,25.66,3.72,25.66
				L799.77,189.44z"/>
		</g>
		<g>
			<g>
				<path style="fill:#8E9BBB;" d="M833.14,192.55c-0.93,2.3-0.91,4.97-1.14,7.4c-0.18,1.9-0.53,4.11,1.21,5.39
					c0.83,0.61,4.76,2.26,2.74,3.6c-0.77,0.51-2.06,0.37-2.94,0.33c-0.6-0.03-1.21-0.05-1.82-0.1c-0.65-0.05-1.28-0.24-1.93-0.25
					c-0.38,0-0.5,0.5-0.19,0.7c1.04,0.65,2.58,0.86,3.79,0.9c1.22,0.05,2.04-0.01,3.14-0.55c0.67-0.33,1.33-0.81,1.43-1.61
					c0.12-0.9-0.56-1.71-1.24-2.22c-0.78-0.58-1.74-0.85-2.53-1.42c-1.1-0.78-1.01-2.11-0.93-3.33c0.19-2.94,0.86-5.83,1.12-8.76
					C833.9,192.2,833.28,192.2,833.14,192.55L833.14,192.55z"/>
			</g>
		</g>
		<g>
			<path style="fill:#223A7A;" d="M841.6,199.42c-0.31,1.74-1.58,2.98-2.83,2.76c-1.26-0.22-2.02-1.82-1.72-3.56
				c0.31-1.74,1.58-2.98,2.83-2.76C841.14,196.09,841.91,197.68,841.6,199.42z"/>
		</g>
		<g>
			<path style="fill:#223A7A;" d="M825.77,198.04c-0.28,1.88-1.61,3.24-2.96,3.04c-1.36-0.2-2.23-1.89-1.95-3.77
				c0.28-1.88,1.61-3.24,2.96-3.04C825.18,194.47,826.05,196.16,825.77,198.04z"/>
		</g>
		<g>
			<g>
				<path style="fill:#223A7A;" d="M837.91,192.24c0.97,0.16,1.94,0,2.92,0.07c0.23,0.02,0.47,0.05,0.7,0.07
					c0.17,0.02-0.31-0.05-0.08-0.01c0.05,0.01,0.1,0.02,0.15,0.02c0.12,0.02,0.24,0.05,0.36,0.08c0.21,0.05,0.41,0.13,0.62,0.17
					c0.19,0.04,0.4,0.09,0.59,0.08c0.11-0.01,0.21-0.03,0.32-0.04c-0.07,0.01-0.13,0.02-0.2,0.04c0,0.02,0.36-0.04,0.4-0.04
					c0.55-0.13,0.9-0.77,0.74-1.31c-0.04-0.16-0.11-0.29-0.21-0.42c-0.04-0.05-0.08-0.11-0.13-0.16c0.04,0.04,0.08,0.09,0.12,0.13
					c-0.04-0.06-0.08-0.11-0.13-0.17c-0.05-0.09-0.13-0.17-0.22-0.22c-0.08-0.06-0.15-0.12-0.23-0.18c-0.26-0.18-0.59-0.28-0.9-0.36
					c-0.58-0.15-1.18-0.22-1.78-0.23c-0.59,0-1.18,0.06-1.76,0.14c-0.52,0.07-1.09,0.25-1.51,0.56c-0.32,0.24-0.52,0.55-0.47,0.97
					C837.26,191.77,837.54,192.17,837.91,192.24L837.91,192.24z"/>
			</g>
		</g>
		<g>
			<g>
				<path style="fill:#223A7A;" d="M826.88,189.47c-0.13-0.08-0.27-0.15-0.4-0.21c-0.12-0.05-0.44-0.22-0.2-0.09
					c-0.09-0.05-0.18-0.1-0.27-0.14c-0.4-0.2-0.82-0.34-1.25-0.45c-0.94-0.24-1.94-0.3-2.91-0.2c-1.03,0.11-1.98,0.36-2.87,0.9
					c-0.13,0.08-0.26,0.15-0.36,0.26c-0.07,0.09-0.14,0.18-0.21,0.27c0.02-0.03,0.04-0.06,0.06-0.09c-0.28,0.19-0.44,0.51-0.43,0.84
					c0,0.32,0.17,0.59,0.45,0.74c0.34,0.19,0.66,0.1,1.01,0.01c-0.17,0-0.35,0-0.52,0c0.29,0.04,0.49,0.06,0.78-0.01
					c0.01,0,0.28-0.07,0.1-0.03c-0.17,0.04,0.28-0.03,0.33-0.04c0.06-0.01,0.37-0.04,0.04-0.01c0.06-0.01,0.12-0.01,0.18-0.02
					c0.16-0.02,0.31-0.04,0.47-0.05c0.68-0.05,1.36-0.08,2.05-0.11c0.63-0.02,1.28-0.03,1.92,0c0.27,0.01,0.54,0.02,0.81,0.03
					c0.15,0,0.09,0.03-0.02,0c0.06,0.02,0.11,0.03,0.17,0.04c0.11,0.03,0.22,0.07,0.33,0.11c0.44,0.17,0.97-0.15,1.13-0.56
					C827.45,190.23,827.3,189.72,826.88,189.47L826.88,189.47z"/>
			</g>
		</g>
		<g>
			<path style="fill:#223A7A;" d="M831.79,218.23c0.95-1.91,2.68-3.31,4.67-4.21c-1.73-0.18-9.92-0.93-11.98,0.24
				c-2.31,1.31,0.43,6.59,5.21,6.85c0.5,0.03,0.96-0.01,1.4-0.08C831.13,220.07,831.35,219.12,831.79,218.23z"/>
		</g>
		<g>
			<path style="fill:#DEE1EB;" d="M793.98,207.13c0,0,0.83,3.21,5.59,6.93c4.76,3.72,11.66,6.45,11.66,6.45l0.55-2.41
				c0,0-7.14-3.1-10.45-6.52c-3.31-3.41-3.72-5.28-3.72-5.28L793.98,207.13z"/>
		</g>
		<g>
			<path style="fill:#223A7A;" d="M812.6,216.31c3.83-0.18,5.97,2.85,6.23,4.81c0.27,1.96-1.57,4.16-5.88,2.23
				C807.61,220.94,808.77,216.48,812.6,216.31z"/>
		</g>
		<g>
			<path style="fill:#DEE1EB;" d="M796.98,183.44c0,0,1.65-11.89,9.62-19.97c15.21-15.41,28.14-14.48,28.14-14.48
				s-0.1-2.17-4.97-3.83c-4.57-1.55-6.62-0.72-6.62-0.72s-12.52,1.03-23.07,12.72c-10.55,11.69-11.69,26.59-11.69,26.59
				L796.98,183.44z"/>
		</g>
		<g>
			<g>
				<path style="fill:#FFFFFF;" d="M795.84,181.99c-9.96-1.69-15.52,6.1-15.93,13.97c-0.41,7.86,5.3,13.84,12.93,13.24
					C810.01,207.85,808.05,184.06,795.84,181.99z"/>
			</g>
			<g>
				<path style="fill:#818FB3;" d="M790.88,201.55c-2.63,0-4.85-1.32-6.12-3.65c-1.36-2.49-1.25-5.56,0.29-7.82
					c0.12-0.17,0.35-0.21,0.52-0.1c0.17,0.12,0.22,0.35,0.1,0.52c-1.38,2.03-1.48,4.79-0.25,7.04c1.16,2.13,3.22,3.34,5.66,3.26
					c2.28-0.06,4.21-1.1,5.43-2.93c1.4-2.09,1.72-4.97,0.82-7.35c-0.9-2.36-3.35-3.96-5.58-3.67c-0.2,0.03-0.39-0.12-0.42-0.32
					c-0.03-0.21,0.12-0.39,0.32-0.42c2.61-0.35,5.35,1.44,6.38,4.15c0.99,2.6,0.63,5.75-0.9,8.03c-1.37,2.04-3.51,3.2-6.03,3.26
					C791.02,201.55,790.95,201.55,790.88,201.55z"/>
			</g>
		</g>
		<g>
			<path style="fill:#223A7A;" d="M783.63,234.02c0,0-30.21,7.45-40.76,19.45s-15.52,71.17-15.72,82.14
				c-0.21,10.97,7.45,15.52,12,18.62c4.55,3.1,24.62,8.69,40.76,9.52c16.14,0.83,31.45,0,31.45,0s-0.05-3.52,2.43-8.69
				c2.3-4.8,5.22-5.79,5.22-5.79l-13.86-4.97c0,0-2.43-43.49-6.21-64.55C794.6,255.54,783.63,234.02,783.63,234.02z"/>
		</g>
		<g>
			<path style="fill:#8593B6;" d="M833.7,337.35c-0.07,0-0.14-0.01-0.2-0.04c-0.25-0.11-0.37-0.41-0.25-0.66
				c2.83-6.39,5.76-18.92,7.41-27.72l0.14-0.71c0.5-2.59,1.12-5.8-0.12-8.03c-0.63-1.13-2.06-3.59-3.44-5.95
				c-1.43-2.45-2.77-4.77-3.15-5.46c-0.73-1.35,1.57-4.96,4.89-9.91c0.9-1.34,1.67-2.49,2.12-3.27c1.18-2.05,0.4-3.92-0.52-6.1
				l-0.31-0.75c-0.83-2.03-1.77-4.06-2.68-6.03c-0.37-0.8-0.74-1.61-1.11-2.42c-0.49-1.07-0.97-2.16-1.47-3.26
				c-2.92-6.52-5.95-13.26-9.82-19.77c-0.14-0.24-0.06-0.54,0.17-0.69c0.24-0.14,0.54-0.06,0.69,0.17
				c3.9,6.56,6.94,13.33,9.87,19.87c0.49,1.1,0.98,2.19,1.46,3.25c0.37,0.81,0.74,1.61,1.11,2.41c0.91,1.98,1.86,4.02,2.69,6.07
				l0.31,0.74c0.93,2.21,1.89,4.51,0.46,6.98c-0.47,0.81-1.25,1.98-2.16,3.33c-1.73,2.58-5.33,7.95-4.84,8.88
				c0.37,0.68,1.71,2.99,3.13,5.43c1.38,2.37,2.81,4.83,3.45,5.97c1.42,2.54,0.76,5.96,0.23,8.7l-0.14,0.71
				c-0.6,3.2-3.79,19.6-7.48,27.94C834.08,337.24,833.89,337.35,833.7,337.35z"/>
		</g>
		<g>
			<path style="fill:#8593B6;" d="M804.22,339.11c-0.13,0-0.26-0.05-0.35-0.15c-2.35-2.37-13.69-22-14.53-25.69
				c-0.46-2.02,0.7-7.15,1.82-12.11c0.87-3.84,1.77-7.81,1.51-8.89c-0.38-1.61-3.28-3.98-6.09-6.27c-3.39-2.77-6.89-5.63-7.57-8.21
				c-0.77-2.93-0.11-21.27,0.32-33.4c0.16-4.36,0.28-7.81,0.28-9.04c0-0.28,0.22-0.5,0.5-0.5c0,0,0,0,0,0c0.28,0,0.5,0.22,0.5,0.5
				c0,1.25-0.12,4.7-0.28,9.07c-0.41,11.34-1.09,30.32-0.36,33.11c0.6,2.26,4.12,5.14,7.23,7.68c3.07,2.51,5.96,4.87,6.42,6.81
				c0.31,1.3-0.53,5.03-1.51,9.34c-1.05,4.62-2.23,9.86-1.82,11.66c0.83,3.62,11.96,22.88,14.27,25.21c0.19,0.2,0.19,0.51,0,0.71
				C804.48,339.06,804.35,339.11,804.22,339.11z"/>
		</g>
		<g>
			<path style="fill:#8593B6;" d="M763.57,330.52c-0.02,0-0.05,0-0.07,0c-0.27-0.04-0.46-0.29-0.43-0.57
				c0.37-2.6,6.11-54.4,6.37-58.37c0.02-0.28,0.26-0.49,0.53-0.47c0.28,0.02,0.48,0.26,0.47,0.53c-0.26,3.97-6.01,55.84-6.38,58.44
				C764.03,330.34,763.81,330.52,763.57,330.52z"/>
		</g>
		<g>
			<path style="fill:#8593B6;" d="M804.74,344.59c-0.06,0-0.13-0.01-0.19-0.04c-1.27-0.52-6.89-2.41-14-4.81
				c-14.36-4.84-34.02-11.47-37.76-13.42c-0.25-0.13-0.34-0.43-0.21-0.67c0.13-0.25,0.43-0.34,0.67-0.21
				c3.67,1.91,24.1,8.8,37.62,13.36c7.13,2.41,12.76,4.3,14.06,4.83c0.26,0.1,0.38,0.4,0.28,0.65
				C805.12,344.47,804.93,344.59,804.74,344.59z"/>
		</g>
		<g>
			<path style="fill:#8593B6;" d="M797.83,365.22c-12.64,0-37.13-2.28-55.74-8.86c-0.26-0.09-0.4-0.38-0.3-0.64
				c0.09-0.26,0.38-0.4,0.64-0.3c23.51,8.32,56.4,9.74,62.52,8.36c0.27-0.06,0.54,0.11,0.6,0.38c0.06,0.27-0.11,0.54-0.38,0.6
				C803.83,365.05,801.27,365.22,797.83,365.22z"/>
		</g>
	</g>
	<g>
		<g>
			<g>
				<path style="fill:#6BAEFF;" d="M653.2,241c3.92,3.45,8.89,5.66,12.33,9.65c1.35,1.57,2.57,3.24,3.83,4.89
					c0.91,1.2,3.36,3.19,3.75,4.69c0.17,0.66,0.14-0.24-0.04-0.9c-0.01-0.03-0.02-0.05-0.03-0.08c-0.34-3.05-0.59-6.11-0.7-9.18
					c-0.11-3.06,0.08-6.13-0.11-9.18c-0.27-4.31-1.62-8.48-5.14-11.18c-1.72-1.32-3.93-2.12-5.52-3.59c-1.5-1.39-0.9-2.98-0.02-4.53
					c0.83-1.45,1.83-2.88,2.15-4.55c0.37-1.9-0.35-3.86-1.31-5.47c-2.05-3.44-6.59-7.28-10.9-6.76c-3.59,0.43-4,4.57-3.94,7.45
					c0.05,2.8,0.33,5.6,0.35,8.4c0.03,2.88-0.46,5.71-0.5,8.58C647.36,234.12,649.61,237.84,653.2,241z"/>
				<path style="fill:#6BAEFF;" d="M689.65,285.78c1.09-2.61,2.35-5.04,3.89-7.41c2.11-3.25,4.46-6.42,5.88-10.06
					c1.45-3.72,1.24-7.69,1.38-11.6c0.1-2.88,0.96-5.74,0.73-8.63c-0.11-1.38-0.91-3.62-2.7-3.39c-1.39,0.18-2.22,1.9-2.75,3.01
					c-0.93,1.92-1.58,3.97-2.27,5.99c-0.27,0.79-0.53,1.59-0.87,2.35c-0.2,0.44-0.83,1.52-1.43,1.38c-1.02-0.25-0.09-4.4,0.06-5.14
					c0.76-3.69,1.9-7.12,2.06-10.92c0.23-5.51-0.2-12.07-5.59-15.08c-1.41-0.79-3.19-1.26-4.53-0.08c-1.32,1.16-1.69,3.17-1.89,4.83
					c-0.6,5.09,0.6,9.9,2.23,14.69c1.35,3.95,2.95,8.03,3.07,12.26c0.11,4.07-2,7.67-3,11.52c-1.58,6.12-1.26,9.37-1.26,11.35
					c-0.01,2.48,0.08,4.94,0.26,7.42c0.17,2.28,0.36,4.55,0.64,6.82c0.06,0.46,0.11,0.94,0.17,1.42c-0.88-2.11-1.18-4.52-1.91-6.64
					c-1.29-3.76-2.78-7.45-4.02-11.23c-1.02-3.12-1.99-6.27-3.33-9.28c-1.26-2.82-2.79-5.8-5.15-7.87
					c-1.43-1.25-3.15-1.98-5.06-1.97c-1.22,0.01-2.32,0.43-3.48,0.74c-1.43,0.38-2.56,0.25-3.74-0.66
					c-3.86-2.97-5.04-8.29-7.89-12.05c-2.13-2.8-7.19-7.58-10.91-4.52c-1.97,1.62-2.52,4.75-2.41,7.16
					c0.13,3.01,1.45,5.77,3.01,8.29c1.67,2.68,3.82,5.08,5.35,7.83c0.91,1.63,1.05,3.19,0.9,5.02c-0.14,1.73-0.29,3.4,0.3,5.07
					c1.77,5.01,7.3,4.31,11.6,4.44c3.01,0.09,6.23,0.54,9.09,1.5c3.3,1.11,5.45,3.26,6.63,6.52c0.85,2.36,1.31,5.04,2.92,7.05
					c0.76,0.94,1.76,1.64,2.86,2.13c1.68,0.74,6.79,1.06,6.82,0.6c0.13-1.56,0.87-3.21,1.33-4.69
					C687.5,291.18,688.52,288.47,689.65,285.78z"/>
				<path style="fill:#6BAEFF;" d="M713.38,284.84c-0.44-2.86-0.36-6.02-1.71-8.65c-0.1-0.19-0.35-0.24-0.53-0.14
					c-0.97,0.54-1.01,2.11-1.09,3.07c-0.13,1.6-0.03,3.2-0.23,4.79c-0.34,2.8-0.99,5.68-2,8.31c-1.14,2.98-3.21,4.67-6.22,5.6
					c-1.93,0.6-3.83,1.12-5.45,2.4c-1.45,1.15-2.45,2.73-3.19,4.4c-2.01,4.51-2.97,9.54-3.9,14.36c-0.63,3.24-1.14,6.5-1.93,9.71
					c-0.79,3.21-1.63,6.4-2.08,9.68c-0.08,0.17-0.16,0.33-0.23,0.5c-0.21,0.49,0.56,0.75,0.82,0.35c3.11-4.78,6.89-9.08,12.06-11.71
					c2.33-1.19,5.43-1.44,7.38-3.31c1.48-1.42,1.68-3.59,1.46-5.53c-0.29-2.54-1.51-4.63-2.78-6.8c-0.7-1.19-1.52-2.46-1.24-3.91
					c0.27-1.36,1.4-2.37,2.52-3.06c2.15-1.33,4.66-1.93,6.41-3.85c1.63-1.78,2.54-4.01,2.72-6.41
					C714.42,291.44,713.87,288,713.38,284.84z"/>
				<path style="fill:#6BAEFF;" d="M671.01,301.35c-2.74-3.53-6.05-6.58-9.77-9.05c-1.99-1.32-6.67-3.92-7.62-0.03
					c-0.55,2.28,1.68,4.52,3.15,5.95c2.21,2.15,4.76,4,6.62,6.48c-2.31,0.74-4.72,0.88-6.72,2.47c-2.37,1.89-3.44,5.53-1.08,7.85
					c1.15,1.13,2.67,1.82,4.09,2.51c1.86,0.9,3.75,1.71,5.65,2.51c4.11,1.72,8.27,3.46,11.77,6.27c3.57,2.86,6.93,7.71,7.21,12.38
					c0.03,0.45-0.14,0.04,0.12-0.16c0.15,0.13,0.63-0.1,0.63-0.36c-0.07-6.93-1.32-13.54-4.15-19.89
					C678.29,312.38,674.97,306.45,671.01,301.35z"/>
			</g>
			<g>
				<path style="fill:#43588E;" d="M661.54,236.8c1.51,3.14,3.09,6.21,4.77,9.27c1.62,2.95,3.23,5.87,4.44,9.02
					c1.49,3.87,3.05,7.68,4.62,11.52c1.64,3.99,3.1,8.05,4.27,12.2c2.29,8.1,3.99,16.43,4.83,24.81c0.43,4.26,0.62,8.54,0.5,12.82
					c-0.09,3.34-0.47,6.65-0.78,9.98c-0.33,3.46-0.56,6.97-0.27,10.44c0.24,2.9,0.7,6.36,2.96,8.43c0.44,0.41,1.07-0.1,0.81-0.62
					c-2.68-5.49-2.53-11.48-2.02-17.43c0.28-3.29,0.67-6.56,0.79-9.86c0.14-4.2-0.02-8.41-0.42-12.59
					c-0.78-8.22-2.42-16.34-4.54-24.31c-1.09-4.09-2.44-8.1-3.99-12.03c-1.56-3.94-3.36-7.78-4.87-11.74
					c-2.73-7.17-6.89-13.52-10.58-20.2C661.88,236.14,661.38,236.45,661.54,236.8L661.54,236.8z"/>
			</g>
			<g>
				<path style="fill:#43588E;" d="M684.61,295.4c0.43-5.22,0.9-10.25,2.65-15.22c0.82-2.32,1.81-4.58,2.61-6.91
					c0.65-1.93,1.63-4.57,1.13-6.62c-0.06-0.23-0.39-0.22-0.45,0c-0.34,1.17-0.3,2.45-0.54,3.65c-0.24,1.17-0.55,2.31-0.91,3.45
					c-0.77,2.41-1.78,4.72-2.65,7.1c-1.69,4.59-2.56,9.67-2.19,14.55C684.27,295.63,684.59,295.63,684.61,295.4L684.61,295.4z"/>
			</g>
			<g>
				<path style="fill:#43588E;" d="M654.36,265.41c2.07,5,8.3,5.29,12.84,6.41c3.24,0.8,5.63,2.96,7.35,5.77
					c1.88,3.07,3.15,6.67,4.2,10.1c0.01,0.04,0.07,0.02,0.06-0.02c-1.27-6-3.09-13.22-9.27-16.01c-4.96-2.24-11.49-1.11-14.65-6.47
					C654.72,264.93,654.24,265.1,654.36,265.41L654.36,265.41z"/>
			</g>
			<g>
				<path style="fill:#43588E;" d="M681.33,294.61c0.25,0.33,0.47,0.68,0.73,1.01c0.13,0.16,0.25,0.31,0.41,0.44
					c0.16,0.13,0.35,0.3,0.58,0.29c0.09,0,0.16-0.11,0.11-0.19c-0.1-0.17-0.29-0.27-0.43-0.39c-0.15-0.13-0.3-0.26-0.44-0.4
					c-0.29-0.27-0.55-0.57-0.84-0.85C681.39,294.47,681.28,294.54,681.33,294.61L681.33,294.61z"/>
			</g>
			<g>
				<path style="fill:#43588E;" d="M668.38,310.49c3.57,2.93,6.87,6.4,9.49,10.21c1.25,1.82,2.41,3.74,3.46,5.68
					c1.14,2.12,1.9,4.36,2.79,6.59c0.07,0.17,0.38,0.17,0.35-0.05c-0.5-4.71-3.48-8.74-5.86-12.66c-1.24-2.03-2.78-3.67-4.44-5.37
					c-1.71-1.75-3.46-3.41-5.46-4.82C668.46,309.9,668.14,310.29,668.38,310.49L668.38,310.49z"/>
			</g>
			<g>
				<path style="fill:#43588E;" d="M696.83,304.94c-1.72,0.98-1.78,3.69-1.81,5.43c-0.06,3.34,0.76,6.47-0.7,9.65
					c-1.32,2.87-3.43,5.27-5.09,7.93c-1.55,2.5-3.09,5.69-3.05,8.69c0,0.17,0.27,0.27,0.35,0.09c0.63-1.36,0.85-2.91,1.3-4.34
					c0.5-1.61,1.21-3.07,2.12-4.48c1.6-2.48,3.56-4.73,4.86-7.39c1.37-2.81,1.17-5.59,1.08-8.63c-0.06-1.94-0.25-5.06,1.31-6.5
					C697.43,305.17,697.11,304.79,696.83,304.94L696.83,304.94z"/>
			</g>
		</g>
		<path style="fill:#FFFFFF;" d="M685.32,336.95c-6.93-0.1-20.14-0.17-20.14-0.17l3.27,24.26c0.74,5.46,5.39,9.53,10.9,9.53h5.69
			h0.55h5.69c5.51,0,10.17-4.07,10.9-9.53l3.27-24.26C705.46,336.78,692.26,336.86,685.32,336.95z"/>
	</g>
	<g>
		<g>
			<g>
				<polygon style="fill:#F6F7FA;" points="1020.43,292.37 980.88,370.71 865.57,371.54 901.15,291.26 				"/>
			</g>
			<g>
				<path style="fill:#D9DEE8;" d="M789.04,371.05l0.02-6.27h74.65l34.34-75.31h119.38l3,2.9H903.81l-35.69,78.62
					C868.12,370.99,789.04,370.84,789.04,371.05z"/>
			</g>
			<g>
				<path style="fill:#D9DEE8;" d="M960.55,335.6c-1.3,3.91-8.37,6.93-15.79,6.74c-7.42-0.19-12.38-3.5-11.07-7.41
					c1.3-3.91,8.37-6.93,15.79-6.74C956.89,328.37,961.85,331.69,960.55,335.6z"/>
			</g>
		</g>
		<g>
			<path style="fill:#FFFFFF;" d="M868.12,371.49c-0.07,0-0.14-0.01-0.21-0.04c-0.25-0.11-0.36-0.41-0.25-0.66l35.82-78.91h116.94
				c0.28,0,0.5,0.22,0.5,0.5c0,0.28-0.22,0.5-0.5,0.5h-116.3l-35.56,78.33C868.49,371.38,868.31,371.49,868.12,371.49z"/>
		</g>
	</g>
	<g>
		<g>
			<rect x="646.67" y="376.99" style="fill:#596B9B;" width="137.17" height="30.41"/>
			<rect x="783.06" y="376.99" style="fill:#7A89AF;" width="246.8" height="30.41"/>
		</g>
		<polygon style="fill:#BDC4D7;" points="783.84,376.99 783.06,376.99 646.67,376.99 646.67,382.57 783.06,382.57 783.84,382.57 
			1029.86,382.57 1029.86,376.99 		"/>
		<rect x="640.05" y="370.99" style="fill:#6F7FA9;" width="149.79" height="7.45"/>
		<rect x="789.06" y="370.99" style="fill:#9CA6C3;" width="246.8" height="7.45"/>
	</g>
	<g>
		<path style="fill:#FFFFFF;" d="M749.21,211.42h-48.42c-3,0-5.43-2.43-5.43-5.43v-24.17c0-3,2.43-5.43,5.43-5.43h48.42
			c3,0,5.43,2.43,5.43,5.43v24.17C754.63,208.99,752.21,211.42,749.21,211.42z"/>
		<polygon style="fill:#FFFFFF;" points="768.44,193.9 750.25,186.23 750.25,201.58 		"/>
		<g>
			<circle style="fill:#223A7A;" cx="713.51" cy="193.9" r="3.35"/>
			<circle style="fill:#223A7A;" cx="725" cy="193.9" r="3.35"/>
			<circle style="fill:#223A7A;" cx="736.48" cy="193.9" r="3.35"/>
		</g>
	</g>
	<g>
		<path style="fill:#60A8FF;" d="M995.74,102.02H883.94c-7.18,0-13,5.82-13,13v53.03c0,7.18,5.82,13,13,13h10.02
			c0.28,4.81-0.41,11.96-4.42,21.1c12.92-5.96,20.35-14.9,24.24-21.1h81.96c7.18,0,13-5.82,13-13v-53.03
			C1008.74,107.84,1002.92,102.02,995.74,102.02z"/>
		<path style="fill:#FFFFFF;" d="M948.05,127.3H892.6c-1.52,0-2.76-1.24-2.76-2.76l0,0c0-1.52,1.24-2.76,2.76-2.76h55.45
			c1.52,0,2.76,1.24,2.76,2.76l0,0C950.81,126.06,949.57,127.3,948.05,127.3z"/>
		<path style="fill:#D2E6FF;" d="M987.81,143.37h-96.28c-0.93,0-1.69-0.76-1.69-1.69l0,0c0-0.93,0.76-1.69,1.69-1.69h96.28
			c0.93,0,1.69,0.76,1.69,1.69l0,0C989.5,142.61,988.74,143.37,987.81,143.37z"/>
		<path style="fill:#D2E6FF;" d="M987.81,152.75h-96.28c-0.93,0-1.69-0.76-1.69-1.69l0,0c0-0.93,0.76-1.69,1.69-1.69h96.28
			c0.93,0,1.69,0.76,1.69,1.69l0,0C989.5,151.99,988.74,152.75,987.81,152.75z"/>
		<path style="fill:#D2E6FF;" d="M966.81,162.75h-75.27c-0.93,0-1.69-0.76-1.69-1.69l0,0c0-0.93,0.76-1.69,1.69-1.69h75.27
			c0.93,0,1.69,0.76,1.69,1.69l0,0C968.5,161.99,967.74,162.75,966.81,162.75z"/>
		<path style="fill:#FFFFFF;" d="M987.05,127.3H960.6c-1.52,0-2.76-1.24-2.76-2.76l0,0c0-1.52,1.24-2.76,2.76-2.76h26.45
			c1.52,0,2.76,1.24,2.76,2.76l0,0C989.81,126.06,988.57,127.3,987.05,127.3z"/>
	</g>
	<g>
		<path style="fill:#FFFFFF;" d="M920.38,249.26h-30.03c-1.1,0-2-0.9-2-2v-20.52c0-1.1,0.9-2,2-2h30.03c1.1,0,2,0.9,2,2v20.52
			C922.38,248.37,921.49,249.26,920.38,249.26z"/>
		<g>
			<g>
				<path style="fill:#6F7FA9;" d="M905.57,240.67c-0.17,0-0.34-0.06-0.48-0.17L888.75,227c-0.32-0.26-0.36-0.74-0.1-1.06
					c0.27-0.32,0.74-0.36,1.06-0.1l15.86,13.1l15.45-13.44c0.31-0.27,0.79-0.24,1.06,0.07c0.27,0.31,0.24,0.79-0.07,1.06
					l-15.93,13.86C905.93,240.61,905.75,240.67,905.57,240.67z"/>
			</g>
			<g>
				<path style="fill:#6F7FA9;" d="M889.23,248.7c-0.19,0-0.37-0.07-0.52-0.21c-0.3-0.29-0.31-0.76-0.03-1.06l11.43-12.02
					c0.28-0.3,0.76-0.31,1.06-0.03c0.3,0.29,0.31,0.76,0.03,1.06l-11.43,12.02C889.63,248.63,889.43,248.7,889.23,248.7z"/>
			</g>
			<g>
				<path style="fill:#6F7FA9;" d="M921.51,248.26c-0.19,0-0.38-0.07-0.53-0.22l-11.39-11.42c-0.29-0.29-0.29-0.77,0-1.06
					c0.29-0.29,0.77-0.29,1.06,0l11.39,11.42c0.29,0.29,0.29,0.77,0,1.06C921.89,248.19,921.7,248.26,921.51,248.26z"/>
			</g>
		</g>
		<g>
			<g>
				<circle style="fill:#FF5F42;" cx="923.94" cy="223.99" r="10.03"/>
			</g>
			<text transform="matrix(1 0 0 1 916.8922 228.2225)" style="fill:#FFFFFF; font-family:'Quicksand-Bold'; font-size:12px;">85</text>
		</g>
	</g>
	<g>
		<g>
			<path style="fill:#223A7A;" d="M1024.73,220.29h-58.62c-2.21,0-4-1.79-4-4v-9.17c0-2.21,1.79-4,4-4h58.62c2.21,0,4,1.79,4,4v9.17
				C1028.73,218.5,1026.94,220.29,1024.73,220.29z"/>
		</g>
		<g>
			<path style="fill:#FFFFFF;" d="M970.34,216.21c-0.26,0-0.47-0.09-0.63-0.28c-0.16-0.19-0.23-0.42-0.21-0.7l0.25-2.22
				c0.02-0.06,0.01-0.09-0.03-0.11c-0.04-0.02-0.08-0.01-0.14,0.03l-1.83,1.32c-0.23,0.17-0.46,0.23-0.7,0.18
				c-0.24-0.05-0.44-0.19-0.59-0.44c-0.17-0.3-0.2-0.56-0.1-0.79c0.1-0.22,0.28-0.38,0.52-0.48l2.05-0.93
				c0.06-0.02,0.08-0.05,0.08-0.08c0-0.04-0.03-0.07-0.08-0.08l-2.05-0.93c-0.26-0.11-0.43-0.29-0.51-0.53
				c-0.07-0.24-0.05-0.49,0.08-0.73c0.15-0.24,0.35-0.39,0.59-0.44c0.24-0.05,0.48,0.01,0.7,0.15l1.83,1.35
				c0.06,0.04,0.1,0.05,0.14,0.03c0.04-0.02,0.05-0.06,0.03-0.11l-0.25-2.22c-0.02-0.28,0.06-0.52,0.23-0.7
				c0.17-0.19,0.39-0.28,0.68-0.28c0.26,0,0.48,0.09,0.65,0.28c0.17,0.19,0.23,0.42,0.2,0.7l-0.25,2.22
				c-0.02,0.06-0.01,0.09,0.03,0.11c0.04,0.02,0.08,0.01,0.14-0.03l1.83-1.32c0.22-0.17,0.46-0.23,0.72-0.18
				c0.25,0.05,0.45,0.19,0.58,0.44c0.17,0.3,0.2,0.56,0.1,0.79c-0.1,0.22-0.28,0.38-0.52,0.48l-2.05,0.93
				c-0.06,0.02-0.08,0.05-0.08,0.08c0,0.04,0.03,0.07,0.08,0.08l2.05,0.93c0.26,0.11,0.44,0.29,0.52,0.53
				c0.08,0.24,0.05,0.49-0.1,0.73c-0.13,0.24-0.32,0.39-0.58,0.44c-0.25,0.05-0.49,0-0.72-0.15l-1.83-1.35
				c-0.06-0.04-0.1-0.05-0.14-0.03c-0.04,0.02-0.05,0.06-0.03,0.11l0.25,2.22c0.04,0.28-0.03,0.52-0.21,0.7
				C970.85,216.12,970.62,216.21,970.34,216.21z"/>
		</g>
		<g>
			<path style="fill:#FFFFFF;" d="M982.46,216.21c-0.26,0-0.47-0.09-0.63-0.28c-0.16-0.19-0.23-0.42-0.21-0.7l0.25-2.22
				c0.02-0.06,0.01-0.09-0.03-0.11c-0.04-0.02-0.08-0.01-0.14,0.03l-1.83,1.32c-0.23,0.17-0.46,0.23-0.7,0.18
				c-0.24-0.05-0.44-0.19-0.59-0.44c-0.17-0.3-0.2-0.56-0.1-0.79c0.1-0.22,0.28-0.38,0.52-0.48l2.05-0.93
				c0.06-0.02,0.08-0.05,0.08-0.08c0-0.04-0.03-0.07-0.08-0.08L979,210.7c-0.26-0.11-0.43-0.29-0.51-0.53
				c-0.07-0.24-0.05-0.49,0.08-0.73c0.15-0.24,0.35-0.39,0.59-0.44c0.24-0.05,0.48,0.01,0.7,0.15l1.83,1.35
				c0.06,0.04,0.1,0.05,0.14,0.03c0.04-0.02,0.05-0.06,0.03-0.11l-0.25-2.22c-0.02-0.28,0.06-0.52,0.23-0.7
				c0.17-0.19,0.39-0.28,0.68-0.28c0.26,0,0.48,0.09,0.65,0.28c0.17,0.19,0.23,0.42,0.2,0.7l-0.25,2.22
				c-0.02,0.06-0.01,0.09,0.03,0.11c0.04,0.02,0.08,0.01,0.14-0.03l1.83-1.32c0.22-0.17,0.46-0.23,0.72-0.18
				c0.25,0.05,0.44,0.19,0.58,0.44c0.17,0.3,0.2,0.56,0.1,0.79c-0.1,0.22-0.28,0.38-0.52,0.48l-2.05,0.93
				c-0.06,0.02-0.08,0.05-0.08,0.08c0,0.04,0.03,0.07,0.08,0.08l2.05,0.93c0.26,0.11,0.44,0.29,0.52,0.53
				c0.08,0.24,0.05,0.49-0.1,0.73c-0.13,0.24-0.32,0.39-0.58,0.44c-0.25,0.05-0.49,0-0.72-0.15l-1.83-1.35
				c-0.06-0.04-0.1-0.05-0.14-0.03c-0.04,0.02-0.05,0.06-0.03,0.11l0.25,2.22c0.04,0.28-0.03,0.52-0.21,0.7
				C982.97,216.12,982.74,216.21,982.46,216.21z"/>
		</g>
		<g>
			<path style="fill:#FFFFFF;" d="M994.59,216.21c-0.26,0-0.47-0.09-0.63-0.28c-0.16-0.19-0.23-0.42-0.21-0.7L994,213
				c0.02-0.06,0.01-0.09-0.03-0.11c-0.04-0.02-0.08-0.01-0.14,0.03l-1.83,1.32c-0.23,0.17-0.46,0.23-0.7,0.18
				c-0.24-0.05-0.44-0.19-0.59-0.44c-0.17-0.3-0.2-0.56-0.1-0.79c0.1-0.22,0.28-0.38,0.52-0.48l2.05-0.93
				c0.06-0.02,0.08-0.05,0.08-0.08c0-0.04-0.03-0.07-0.08-0.08l-2.05-0.93c-0.26-0.11-0.43-0.29-0.51-0.53
				c-0.07-0.24-0.05-0.49,0.08-0.73c0.15-0.24,0.35-0.39,0.59-0.44c0.24-0.05,0.48,0.01,0.7,0.15l1.83,1.35
				c0.06,0.04,0.1,0.05,0.14,0.03c0.04-0.02,0.05-0.06,0.03-0.11l-0.25-2.22c-0.02-0.28,0.06-0.52,0.23-0.7
				c0.17-0.19,0.39-0.28,0.68-0.28c0.26,0,0.48,0.09,0.65,0.28c0.17,0.19,0.23,0.42,0.2,0.7l-0.25,2.22
				c-0.02,0.06-0.01,0.09,0.03,0.11c0.04,0.02,0.08,0.01,0.14-0.03l1.83-1.32c0.22-0.17,0.46-0.23,0.72-0.18
				c0.25,0.05,0.45,0.19,0.58,0.44c0.17,0.3,0.2,0.56,0.1,0.79c-0.1,0.22-0.28,0.38-0.52,0.48l-2.05,0.93
				c-0.06,0.02-0.08,0.05-0.08,0.08c0,0.04,0.03,0.07,0.08,0.08l2.05,0.93c0.26,0.11,0.44,0.29,0.52,0.53
				c0.08,0.24,0.05,0.49-0.1,0.73c-0.13,0.24-0.32,0.39-0.58,0.44c-0.25,0.05-0.49,0-0.72-0.15l-1.83-1.35
				c-0.06-0.04-0.1-0.05-0.14-0.03c-0.04,0.02-0.05,0.06-0.03,0.11l0.25,2.22c0.04,0.28-0.03,0.52-0.21,0.7
				C995.1,216.12,994.87,216.21,994.59,216.21z"/>
		</g>
		<g>
			<path style="fill:#FFFFFF;" d="M1006.71,216.21c-0.26,0-0.47-0.09-0.63-0.28c-0.16-0.19-0.23-0.42-0.21-0.7l0.25-2.22
				c0.02-0.06,0.01-0.09-0.03-0.11c-0.04-0.02-0.08-0.01-0.14,0.03l-1.83,1.32c-0.23,0.17-0.46,0.23-0.7,0.18
				c-0.24-0.05-0.44-0.19-0.59-0.44c-0.17-0.3-0.2-0.56-0.1-0.79c0.1-0.22,0.28-0.38,0.52-0.48l2.05-0.93
				c0.06-0.02,0.08-0.05,0.08-0.08c0-0.04-0.03-0.07-0.08-0.08l-2.05-0.93c-0.26-0.11-0.43-0.29-0.51-0.53
				c-0.07-0.24-0.05-0.49,0.08-0.73c0.15-0.24,0.35-0.39,0.59-0.44c0.24-0.05,0.48,0.01,0.7,0.15l1.83,1.35
				c0.06,0.04,0.1,0.05,0.14,0.03c0.04-0.02,0.05-0.06,0.03-0.11l-0.25-2.22c-0.02-0.28,0.06-0.52,0.23-0.7
				c0.17-0.19,0.39-0.28,0.68-0.28c0.26,0,0.48,0.09,0.65,0.28c0.17,0.19,0.23,0.42,0.2,0.7l-0.25,2.22
				c-0.02,0.06-0.01,0.09,0.03,0.11c0.04,0.02,0.08,0.01,0.14-0.03l1.83-1.32c0.22-0.17,0.46-0.23,0.72-0.18
				c0.25,0.05,0.45,0.19,0.58,0.44c0.17,0.3,0.2,0.56,0.1,0.79c-0.1,0.22-0.28,0.38-0.52,0.48l-2.05,0.93
				c-0.06,0.02-0.08,0.05-0.08,0.08c0,0.04,0.03,0.07,0.08,0.08l2.05,0.93c0.26,0.11,0.44,0.29,0.52,0.53
				c0.08,0.24,0.05,0.49-0.1,0.73c-0.13,0.24-0.32,0.39-0.58,0.44c-0.25,0.05-0.49,0-0.72-0.15l-1.83-1.35
				c-0.06-0.04-0.1-0.05-0.14-0.03c-0.04,0.02-0.05,0.06-0.03,0.11l0.25,2.22c0.04,0.28-0.03,0.52-0.21,0.7
				C1007.22,216.12,1006.99,216.21,1006.71,216.21z"/>
		</g>
		<g>
			<path style="fill:#67ACFF;" d="M1018.84,216.21c-0.26,0-0.47-0.09-0.63-0.28c-0.16-0.19-0.23-0.42-0.21-0.7l0.25-2.22
				c0.02-0.06,0.01-0.09-0.03-0.11c-0.04-0.02-0.08-0.01-0.14,0.03l-1.83,1.32c-0.23,0.17-0.46,0.23-0.7,0.18
				c-0.24-0.05-0.44-0.19-0.59-0.44c-0.17-0.3-0.2-0.56-0.1-0.79c0.1-0.22,0.28-0.38,0.52-0.48l2.05-0.93
				c0.06-0.02,0.08-0.05,0.08-0.08c0-0.04-0.03-0.07-0.08-0.08l-2.05-0.93c-0.26-0.11-0.43-0.29-0.51-0.53
				c-0.07-0.24-0.05-0.49,0.08-0.73c0.15-0.24,0.35-0.39,0.59-0.44c0.24-0.05,0.48,0.01,0.7,0.15l1.83,1.35
				c0.06,0.04,0.1,0.05,0.14,0.03c0.04-0.02,0.05-0.06,0.03-0.11l-0.25-2.22c-0.02-0.28,0.06-0.52,0.23-0.7
				c0.17-0.19,0.39-0.28,0.68-0.28c0.26,0,0.48,0.09,0.65,0.28c0.17,0.19,0.23,0.42,0.2,0.7l-0.25,2.22
				c-0.02,0.06-0.01,0.09,0.03,0.11c0.04,0.02,0.08,0.01,0.14-0.03l1.83-1.32c0.22-0.17,0.46-0.23,0.72-0.18
				c0.25,0.05,0.45,0.19,0.58,0.44c0.17,0.3,0.2,0.56,0.1,0.79c-0.1,0.22-0.28,0.38-0.52,0.48l-2.05,0.93
				c-0.06,0.02-0.08,0.05-0.08,0.08c0,0.04,0.03,0.07,0.08,0.08l2.05,0.93c0.26,0.11,0.44,0.29,0.52,0.53
				c0.08,0.24,0.05,0.49-0.1,0.73c-0.13,0.24-0.32,0.39-0.58,0.44c-0.25,0.05-0.49,0-0.72-0.15l-1.83-1.35
				c-0.06-0.04-0.1-0.05-0.14-0.03c-0.04,0.02-0.05,0.06-0.03,0.11l0.25,2.22c0.04,0.28-0.03,0.52-0.21,0.7
				C1019.35,216.12,1019.12,216.21,1018.84,216.21z"/>
		</g>
	</g>
</g>
</svg>
