<?xml version="1.0" encoding="utf-8"?>
<!-- Svg Vector Icons : http://www.onlinewebfonts.com/icon -->
<!DOCTYPE svg PUBLIC "-//W3C//DTD SVG 1.1//EN" "http://www.w3.org/Graphics/SVG/1.1/DTD/svg11.dtd">
<svg version="1.1" xmlns="http://www.w3.org/2000/svg" xmlns:xlink="http://www.w3.org/1999/xlink" x="0px" y="0px" viewBox="0 0 1000 1000" enable-background="new 0 0 1000 1000" xml:space="preserve">
<metadata> Svg Vector Icons : http://www.onlinewebfonts.com/icon </metadata>
<g><g transform="translate(0.000000,511.000000) scale(0.100000,-0.100000)"><path d="M4030,4997c-723.7-115.5-1320.9-638.7-1525.8-1340.5c-180.9-623.4-19.6-1310,416.3-1772.1l115.5-124.2l2.2,307.3c0,296.5-2.2,313.9-65.4,453.4c-98.1,215.8-133,370.6-133,601.6c-2.2,357.5,98.1,658.3,311.7,922c309.5,388,738.9,579.8,1235.9,553.7c540.6-26.2,998.3-327,1235.9-810.9c183.1-377.1,207.1-747.6,71.9-1118.2c-67.6-178.7-71.9-209.3-78.5-527.5l-8.7-337.9l106.8,104.6c141.7,139.5,292.1,396.7,379.3,647.4c69.7,202.7,71.9,215.8,71.9,577.6c0,364-2.2,374.9-74.1,582c-213.6,623.4-701.9,1081.1-1320.9,1238.1C4568.4,5005.7,4217.5,5025.4,4030,4997z"/><path d="M4154.3,4035.8c-252.8-47.9-503.5-237.6-606-451.2c-41.4-87.2-63.2-178.7-76.3-329.1c-8.7-115.5-19.6-1087.7-19.6-2160.1l-2.2-1950.9l-65.4,76.3c-37.1,41.4-119.9,174.4-187.5,294.3C2955.4-51.2,2905.3,25.1,2805,127.5c-161.3,159.1-335.7,231.1-597.2,244.1c-185.3,8.7-235.4,4.4-353.1-39.2c-350.9-126.4-558-394.5-534-684.4c8.7-95.9,152.6-383.6,1079-2149.2C3208.3-4044.5,3489.5-4561.1,3557-4630.8c159.1-165.6,72-159.1,2214.6-159.1c2066.4,0,2055.5,0,2284.3,124.3c56.7,30.5,152.6,109,211.4,170c207.1,218,289.9,464.3,337.9,1002.7c61,656.1,82.8,1342.7,74.1,2223.3c-8.7,843.5-10.9,876.2-58.9,996.1c-143.9,366.2-586.3,599.4-970,514.4l-146-32.7l-43.6,102.5c-85,198.3-333.5,383.6-586.4,438.1c-111.2,24-350.9,17.4-451.2-13.1c-37.1-13.1-48-4.4-58.9,47.9c-24,106.8-139.5,283.4-237.6,364c-126.4,104.6-298.6,178.7-479.5,211.4c-139.5,24-200.5,19.6-379.3-15.3l-71.9-13.1v932.9c0,514.4-10.9,1002.7-21.8,1083.3c-52.3,359.7-309.5,619.1-684.4,688.8C4343.9,4061.9,4289.4,4061.9,4154.3,4035.8z M4461.6,3484.3c39.2-15.3,93.7-56.7,124.2-89.4l54.5-58.9l10.9-1765.6l10.9-1765.6l71.9-63.2c56.7-52.3,89.4-63.2,178.8-63.2c87.2,0,122.1,10.9,174.4,61c91.6,80.7,106.8,170,109,573.3c0,305.2,4.4,346.6,43.6,394.5c126.4,163.5,407.6,165.6,555.8,4.4l54.5-58.9V73c0-656.1,8.7-697.5,161.3-773.8c102.5-50.1,207.1-32.7,303,52.3l69.7,61l10.9,313.9c13.1,346.6,30.5,401.1,157,466.5c87.2,45.8,259.4,30.5,340-28.3c95.9-71.9,111.2-152.6,111.2-653.9l2.2-459.9l56.7-67.6c106.8-128.6,303-128.6,409.8,0c52.3,61,56.7,82.8,56.7,287.7c0,259.4,32.7,348.8,152.6,412c163.5,89.4,390.2-8.7,438.1-185.3c37.1-135.2,10.9-2240.8-32.7-2739.9c-47.9-534-69.7-651.7-150.4-786.9c-126.4-209.3,41.4-194-2105.6-196.2c-1046.3-2.2-1887.7,4.3-1896.4,15.2c-10.9,10.9-481.7,895.9-1048.5,1966.1C1791.5-173.3,1837.2-271.4,1957.1-208.2c143.8,76.3,353.1,54.5,459.9-48c39.2-37.1,141.7-200.5,231.1-361.8c209.2-381.5,396.7-636.5,520.9-704.1c139.5-78.5,348.8-87.2,497-24c115.5,50.1,248.5,174.4,294.3,279c19.6,43.6,28.3,601.6,37.1,2216.8c13.1,2432.6-2.2,2238.6,180.9,2323.6C4287.2,3521.3,4365.7,3525.7,4461.6,3484.3z"/></g></g>
</svg>