<?xml version="1.0" encoding="UTF-8"?>
<!DOCTYPE svg PUBLIC "-//W3C//DTD SVG 1.1//EN" "http://www.w3.org/Graphics/SVG/1.1/DTD/svg11.dtd">
<!-- Creator: CorelDRAW 2021 (64-Bit) -->
<svg xmlns="http://www.w3.org/2000/svg" xml:space="preserve" width="67.1726mm" height="20.0739mm" version="1.1" style="shape-rendering:geometricPrecision; text-rendering:geometricPrecision; image-rendering:optimizeQuality; fill-rule:evenodd; clip-rule:evenodd"
viewBox="0 0 701.45 209.62"
 xmlns:xlink="http://www.w3.org/1999/xlink"
 xmlns:xodm="http://www.corel.com/coreldraw/odm/2003">
 <defs>
  <style type="text/css">
   <![CDATA[
    .str0 {stroke:red;stroke-width:5.53;stroke-linecap:round;stroke-linejoin:round;stroke-miterlimit:22.9256}
    .fil1 {fill:none}
    .fil0 {fill:white;fill-rule:nonzero}
   ]]>
  </style>
 </defs>
 <g id="Layer_x0020_1">
  <metadata id="CorelCorpID_0Corel-Layer"/>
  <path class="fil0" d="M33.23 198.19l0 3.9 6.21 0c-0.76,2.06 -2.69,3.34 -5.36,3.34 -3.39,0 -5.96,-2.4 -5.96,-5.58 0,-3.15 2.51,-5.55 5.81,-5.55 1.97,0 3.91,0.56 5.09,2.68l4.81 -1.28c-1.42,-3.65 -5.39,-5.6 -9.9,-5.6 -6.09,0 -10.84,4.29 -10.84,9.76 0,5.49 4.78,9.76 10.93,9.76 6.12,0 10.5,-4.07 10.5,-9.73 0,-0.47 -0.03,-1.03 -0.12,-1.7l-11.17 0z"/>
  <polygon id="_1" class="fil0" points="80.99,205.19 71,205.19 71,190.53 66,190.53 66,209.2 80.99,209.2 "/>
  <path id="_2" class="fil0" d="M111.95 190.11c-6.05,0 -10.81,4.32 -10.81,9.78 0,5.44 4.75,9.73 10.81,9.73 6.05,0 10.81,-4.29 10.81,-9.73 0,-5.46 -4.75,-9.78 -10.81,-9.78zm0 15.3c-3.3,0 -5.81,-2.34 -5.81,-5.52 0,-3.21 2.51,-5.58 5.81,-5.58 3.3,0 5.81,2.37 5.81,5.58 0,3.18 -2.51,5.52 -5.81,5.52z"/>
  <path id="_3" class="fil0" d="M157.55 199.56c1.36,-0.14 3.33,-1.37 3.33,-3.93 0,-3.07 -2.42,-5.1 -6.15,-5.1l-10.51 0 0 18.68 10.54 0c4.42,0 6.69,-2.15 6.69,-5.24 0,-2.82 -2.03,-4.15 -3.91,-4.29l0 -0.11zm-8.32 -5.32l4.54 0c1.27,0 2.27,0.75 2.27,1.92 0,1.25 -0.97,2.09 -2.45,2.09l-4.36 0 0 -4.01zm0 11.26l0 -4.1 4.75 0c1.42,0 2.39,0.78 2.39,2.01 0,1.28 -0.88,2.09 -2.48,2.09l-4.66 0z"/>
  <path id="_4" class="fil0" d="M203.1 209.2l-8.48 -18.68 -5.12 0 -8.48 18.68 5.36 0 1.42 -3.4 8.54 0 1.42 3.4 5.33 0zm-8.42 -7.36l-5.18 0 2.57 -6.13 2.6 6.13z"/>
  <polygon id="_5" class="fil0" points="238.51,205.19 228.52,205.19 228.52,190.53 223.53,190.53 223.53,209.2 238.51,209.2 "/>
  <path id="_6" class="fil0" d="M282.4 201.32c-0.7,2.79 -2.75,4.13 -5.33,4.13 -3.21,0 -5.78,-2.4 -5.78,-5.58 0,-3.18 2.57,-5.55 5.78,-5.55 2.6,0 4.66,1.31 5.3,4.01l4.9 -1.06c-0.97,-4.43 -5.21,-7.16 -10.2,-7.16 -6.03,0 -10.78,4.29 -10.78,9.76 0,5.49 4.75,9.76 10.78,9.76 5.21,0 9.29,-2.73 10.23,-7.41l-4.9 -0.89z"/>
  <path id="_7" class="fil0" d="M318.89 190.11c-6.05,0 -10.81,4.32 -10.81,9.78 0,5.44 4.75,9.73 10.81,9.73 6.05,0 10.81,-4.29 10.81,-9.73 0,-5.46 -4.75,-9.78 -10.81,-9.78zm0 15.3c-3.3,0 -5.81,-2.34 -5.81,-5.52 0,-3.21 2.51,-5.58 5.81,-5.58 3.3,0 5.81,2.37 5.81,5.58 0,3.18 -2.51,5.52 -5.81,5.52z"/>
  <polygon id="_8" class="fil0" points="370.56,190.53 365.59,190.53 365.59,201.68 355.33,190.53 351.18,190.53 351.18,209.2 356.18,209.2 356.18,198.39 366.44,209.2 370.56,209.2 "/>
  <path id="_9" class="fil0" d="M408.17 201.32c-0.7,2.79 -2.75,4.13 -5.33,4.13 -3.21,0 -5.78,-2.4 -5.78,-5.58 0,-3.18 2.57,-5.55 5.78,-5.55 2.6,0 4.66,1.31 5.3,4.01l4.9 -1.06c-0.97,-4.43 -5.21,-7.16 -10.2,-7.16 -6.02,0 -10.78,4.29 -10.78,9.76 0,5.49 4.75,9.76 10.78,9.76 5.21,0 9.29,-2.73 10.23,-7.41l-4.9 -0.89z"/>
  <polygon id="_10" class="fil0" points="450.36,205.25 439.56,205.25 439.56,201.73 449.39,201.73 449.39,198 439.56,198 439.56,194.49 450.27,194.49 450.27,190.53 434.56,190.53 434.56,209.2 450.36,209.2 "/>
  <path id="_11" class="fil0" d="M472.15 190.53l0 18.68 4.99 0 0 -5.71 4.78 0c4.69,0 7.66,-2.59 7.66,-6.52 0,-3.85 -2.88,-6.44 -7.45,-6.44l-9.99 0zm4.99 9.12l0 -5.19 4.42 0c1.94,0 3.12,1.06 3.12,2.56 0,1.59 -1.18,2.62 -3.12,2.62l-4.42 0z"/>
  <polygon id="_12" class="fil0" points="527.87,194.54 527.87,190.53 509.76,190.53 509.76,194.54 516.33,194.54 516.33,209.2 521.3,209.2 521.3,194.54 "/>
  <polygon id="_13" class="fil0" points="570.9,205.19 560.91,205.19 560.91,190.53 555.92,190.53 555.92,209.2 570.9,209.2 "/>
  <polygon id="_14" class="fil0" points="606.22,194.54 606.22,190.53 588.12,190.53 588.12,194.54 594.68,194.54 594.68,209.2 599.65,209.2 599.65,194.54 "/>
  <path id="_15" class="fil0" d="M627.25 190.53l0 18.68 8.02 0c6.69,0 11.11,-3.79 11.11,-9.34 0,-5.55 -4.42,-9.34 -11.11,-9.34l-8.02 0zm4.99 14.69l0 -10.7 2.85 0c3.78,0 6.27,2.12 6.27,5.35 0,3.23 -2.48,5.35 -6.27,5.35l-2.85 0z"/>
  <path class="fil0" d="M186.27 25.72c0,-5.8 10.83,-7.1 19.64,-7.1 8.89,0.02 16.41,1.37 19.66,7.1l29.72 0c-2.7,-22.69 -23.88,-25.56 -49.38,-25.72 -25.54,0 -49.36,4.97 -49.36,25.72 -0.06,18.18 28.48,19.59 48.77,20.62 11.42,0.54 20.25,1.02 20.25,4.21 0,5.64 -10.83,7.1 -19.66,7.1 -8.87,0 -16.39,-1.46 -19.64,-7.1l-29.72 0c2.7,22.58 23.88,25.67 49.36,25.72 25.56,0 49.38,-4.93 49.38,-25.72 0.06,-18.18 -28.48,-19.59 -48.77,-20.62 -11.42,-0.54 -20.25,-0.98 -20.25,-4.21z"/>
  <polygon id="_1_0" class="fil0" points="366.12,47.94 349.29,1.88 317.33,1.88 300.44,47.94 283.61,1.88 251.67,1.88 283.61,74.62 317.33,74.62 333.32,38.25 349.29,74.62 383.01,74.62 414.96,1.88 383.01,1.88 "/>
  <polygon id="_2_1" class="fil0" points="417.13,74.62 445.49,74.62 445.49,35.76 473.91,74.62 488.09,74.62 516.53,35.76 516.53,74.62 544.9,74.62 544.9,1.77 509.43,1.77 481.01,38.2 452.63,1.77 417.13,1.77 "/>
  <polygon class="fil0" points="-0,92.87 -0,165.72 85.16,165.72 85.16,142.66 28.37,142.66 28.37,92.87 "/>
  <polygon class="fil0" points="250.94,165.72 250.94,116.05 284.67,116.05 284.67,92.98 188.85,92.98 188.85,116.05 222.58,116.05 222.58,165.72 "/>
  <polygon class="fil0" points="356.94,165.72 356.94,116.05 390.67,116.05 390.67,92.98 294.85,92.98 294.85,116.05 328.58,116.05 328.58,165.72 "/>
  <polygon class="fil0" points="400.15,165.72 485.31,165.72 485.31,147.09 428.52,147.09 428.52,137.78 485.31,137.78 485.31,120.93 428.52,120.93 428.52,111.61 485.31,111.61 485.31,92.98 400.15,92.98 "/>
  <path class="fil0" d="M500.37 92.98l0 72.74 28.37 0 0 -17.74 25.34 0 13.69 17.74 30.22 0 -15.87 -20.4c4.77,-2.2 8.61,-5.56 11.49,-9.92 2.92,-4.43 4.38,-9.41 4.38,-14.9 0.22,-15.06 -12.51,-27.66 -27.5,-27.52l-70.11 0zm62.96 21.29c3.46,0 6.23,2.75 6.23,6.23 0,1.7 -0.59,3.16 -1.85,4.4 -1.18,1.2 -2.64,1.79 -4.38,1.79l-34.6 0 0 -12.42 34.6 0z"/>
  <polygon class="fil0" points="625.17,92.98 591.44,92.98 632.26,140.88 632.26,165.72 660.63,165.72 660.63,140.88 701.45,92.98 667.76,92.98 646.44,119.08 "/>
  <g id="_2558451878752">
   <path class="fil1 str0" d="M135.72 146.88c-1.79,10.51 -9.57,18.99 -19.71,21.78l39.42 0c-10.14,-2.8 -17.92,-11.27 -19.71,-21.78z"/>
   <circle class="fil1 str0" cx="118.48" cy="132.59" r="21.98"/>
   <circle class="fil1 str0" cx="152.96" cy="132.59" r="21.98"/>
   <circle class="fil1 str0" cx="135.72" cy="106.56" r="21.98"/>
  </g>
 </g>
</svg>
